<svg id="visual" viewBox="0 0 900 600" width="900" height="600" xmlns="http://www.w3.org/2000/svg" xmlns:xlink="http://www.w3.org/1999/xlink" version="1.1"><path d="M0 279L21.5 285.5C43 292 86 305 128.8 306.7C171.7 308.3 214.3 298.7 257.2 295.2C300 291.7 343 294.3 385.8 300.8C428.7 307.3 471.3 317.7 514.2 314.8C557 312 600 296 642.8 298C685.7 300 728.3 320 771.2 327.5C814 335 857 330 878.5 327.5L900 325L900 601L878.5 601C857 601 814 601 771.2 601C728.3 601 685.7 601 642.8 601C600 601 557 601 514.2 601C471.3 601 428.7 601 385.8 601C343 601 300 601 257.2 601C214.3 601 171.7 601 128.8 601C86 601 43 601 21.5 601L0 601Z" fill="#61fbff"></path><path d="M0 383L21.5 377.8C43 372.7 86 362.3 128.8 368.3C171.7 374.3 214.3 396.7 257.2 398.3C300 400 343 381 385.8 378.7C428.7 376.3 471.3 390.7 514.2 398.5C557 406.3 600 407.7 642.8 405.7C685.7 403.7 728.3 398.3 771.2 392.7C814 387 857 381 878.5 378L900 375L900 601L878.5 601C857 601 814 601 771.2 601C728.3 601 685.7 601 642.8 601C600 601 557 601 514.2 601C471.3 601 428.7 601 385.8 601C343 601 300 601 257.2 601C214.3 601 171.7 601 128.8 601C86 601 43 601 21.5 601L0 601Z" fill="#49bdd8"></path><path d="M0 452L21.5 453.5C43 455 86 458 128.8 463.3C171.7 468.7 214.3 476.3 257.2 478.2C300 480 343 476 385.8 475.7C428.7 475.3 471.3 478.7 514.2 477.5C557 476.3 600 470.7 642.8 469.2C685.7 467.7 728.3 470.3 771.2 473.5C814 476.7 857 480.3 878.5 482.2L900 484L900 601L878.5 601C857 601 814 601 771.2 601C728.3 601 685.7 601 642.8 601C600 601 557 601 514.2 601C471.3 601 428.7 601 385.8 601C343 601 300 601 257.2 601C214.3 601 171.7 601 128.8 601C86 601 43 601 21.5 601L0 601Z" fill="#4682a3"></path><path d="M0 554L21.5 545.8C43 537.7 86 521.3 128.8 514C171.7 506.7 214.3 508.3 257.2 507.3C300 506.3 343 502.7 385.8 502.3C428.7 502 471.3 505 514.2 509.3C557 513.7 600 519.3 642.8 516.7C685.7 514 728.3 503 771.2 508.8C814 514.7 857 537.3 878.5 548.7L900 560L900 601L878.5 601C857 601 814 601 771.2 601C728.3 601 685.7 601 642.8 601C600 601 557 601 514.2 601C471.3 601 428.7 601 385.8 601C343 601 300 601 257.2 601C214.3 601 171.7 601 128.8 601C86 601 43 601 21.5 601L0 601Z" fill="#3a4d67"></path></svg>