<svg id="visual" viewBox="0 0 900 600" width="900" height="600" xmlns="http://www.w3.org/2000/svg" xmlns:xlink="http://www.w3.org/1999/xlink" version="1.1"><g stroke-width="1" stroke-linejoin="bevel"><path d="M487.8 286.3L457.4 217.7L403.2 240.7Z" fill="#44c5d6" stroke="#44c5d6"></path><path d="M457.4 217.7L452.6 210.7L403.2 240.7Z" fill="#153749" stroke="#153749"></path><path d="M460.6 148L452.6 210.7L457.4 217.7Z" fill="#61fbff" stroke="#61fbff"></path><path d="M460.6 148L442.6 152.3L452.6 210.7Z" fill="#0c2332" stroke="#0c2332"></path><path d="M452.6 210.7L390.4 165.3L403.2 240.7Z" fill="#00101c" stroke="#00101c"></path><path d="M403.2 240.7L439.4 376.3L487.8 286.3Z" fill="#1c4c61" stroke="#1c4c61"></path><path d="M442.6 152.3L390.4 165.3L452.6 210.7Z" fill="#00101c" stroke="#00101c"></path><path d="M578.8 195L460.6 148L457.4 217.7Z" fill="#0c2332" stroke="#0c2332"></path><path d="M310.2 210L327.2 268.3L403.2 240.7Z" fill="#3192a9" stroke="#3192a9"></path><path d="M403.2 240.7L327.2 268.3L439.4 376.3Z" fill="#3192a9" stroke="#3192a9"></path><path d="M460.6 148L450.4 132L442.6 152.3Z" fill="#00101c" stroke="#00101c"></path><path d="M442.6 152.3L438.4 129.7L390.4 165.3Z" fill="#00101c" stroke="#00101c"></path><path d="M450.4 132L438.4 129.7L442.6 152.3Z" fill="#153749" stroke="#153749"></path><path d="M303.9 200.7L310.2 210L390.4 165.3Z" fill="#236379" stroke="#236379"></path><path d="M390.4 165.3L310.2 210L403.2 240.7Z" fill="#61fbff" stroke="#61fbff"></path><path d="M439.4 376.3L508.6 396.3L487.8 286.3Z" fill="#44c5d6" stroke="#44c5d6"></path><path d="M608.8 237.7L578.8 195L487.8 286.3Z" fill="#2a7a91" stroke="#2a7a91"></path><path d="M487.8 286.3L578.8 195L457.4 217.7Z" fill="#51e0eb" stroke="#51e0eb"></path><path d="M460.6 148L528.8 104.3L450.4 132Z" fill="#153749" stroke="#153749"></path><path d="M260.9 159L303.9 200.7L311.2 76.3Z" fill="#3192a9" stroke="#3192a9"></path><path d="M310.2 210L263.7 245.7L327.2 268.3Z" fill="#0c2332" stroke="#0c2332"></path><path d="M508.6 396.3L583.8 335L487.8 286.3Z" fill="#0c2332" stroke="#0c2332"></path><path d="M323.9 399.3L422.4 422.7L439.4 376.3Z" fill="#153749" stroke="#153749"></path><path d="M439.4 376.3L422.4 422.7L508.6 396.3Z" fill="#44c5d6" stroke="#44c5d6"></path><path d="M583.8 335L608.8 237.7L487.8 286.3Z" fill="#2a7a91" stroke="#2a7a91"></path><path d="M548.8 92.7L528.8 104.3L609.1 146Z" fill="#1c4c61" stroke="#1c4c61"></path><path d="M578.8 195L528.8 104.3L460.6 148Z" fill="#51e0eb" stroke="#51e0eb"></path><path d="M464.6 39.7L408.2 67.7L438.4 129.7Z" fill="#3192a9" stroke="#3192a9"></path><path d="M301.2 404L323.9 399.3L327.2 268.3Z" fill="#44c5d6" stroke="#44c5d6"></path><path d="M327.2 268.3L323.9 399.3L439.4 376.3Z" fill="#2a7a91" stroke="#2a7a91"></path><path d="M303.9 200.7L263.7 245.7L310.2 210Z" fill="#3aacc0" stroke="#3aacc0"></path><path d="M583.8 335L630.1 289.3L608.8 237.7Z" fill="#2a7a91" stroke="#2a7a91"></path><path d="M630.1 289.3L637.1 243.7L608.8 237.7Z" fill="#44c5d6" stroke="#44c5d6"></path><path d="M608.8 237.7L609.1 146L578.8 195Z" fill="#44c5d6" stroke="#44c5d6"></path><path d="M422.4 422.7L499.6 451L508.6 396.3Z" fill="#3192a9" stroke="#3192a9"></path><path d="M633.3 389L620.1 352L583.8 335Z" fill="#236379" stroke="#236379"></path><path d="M583.8 335L620.1 352L630.1 289.3Z" fill="#1c4c61" stroke="#1c4c61"></path><path d="M507.6 504.7L499.6 451L422.4 422.7Z" fill="#3192a9" stroke="#3192a9"></path><path d="M633.3 389L583.8 335L508.6 396.3Z" fill="#00101c" stroke="#00101c"></path><path d="M323.9 399.3L376.4 450L422.4 422.7Z" fill="#2a7a91" stroke="#2a7a91"></path><path d="M620.1 352L643.3 289.7L630.1 289.3Z" fill="#153749" stroke="#153749"></path><path d="M630.1 289.3L643.3 289.7L637.1 243.7Z" fill="#236379" stroke="#236379"></path><path d="M464.6 39.7L438.4 129.7L450.4 132Z" fill="#236379" stroke="#236379"></path><path d="M438.4 129.7L408.2 67.7L390.4 165.3Z" fill="#00101c" stroke="#00101c"></path><path d="M303.9 200.7L260.9 159L263.7 245.7Z" fill="#3192a9" stroke="#3192a9"></path><path d="M609.1 146L528.8 104.3L578.8 195Z" fill="#44c5d6" stroke="#44c5d6"></path><path d="M528.8 104.3L464.6 39.7L450.4 132Z" fill="#153749" stroke="#153749"></path><path d="M223.7 392.3L301.2 404L327.2 268.3Z" fill="#00101c" stroke="#00101c"></path><path d="M323.9 399.3L286.9 424L376.4 450Z" fill="#3192a9" stroke="#3192a9"></path><path d="M637.1 243.7L609.1 146L608.8 237.7Z" fill="#00101c" stroke="#00101c"></path><path d="M311.2 76.3L303.9 200.7L390.4 165.3Z" fill="#236379" stroke="#236379"></path><path d="M278.2 429.7L286.9 424L223.7 392.3Z" fill="#3192a9" stroke="#3192a9"></path><path d="M301.2 404L286.9 424L323.9 399.3Z" fill="#153749" stroke="#153749"></path><path d="M548.8 92.7L464.6 39.7L528.8 104.3Z" fill="#0c2332" stroke="#0c2332"></path><path d="M552.8 485.7L633.3 389L508.6 396.3Z" fill="#51e0eb" stroke="#51e0eb"></path><path d="M620.1 352L684.3 400.3L643.3 289.7Z" fill="#00101c" stroke="#00101c"></path><path d="M408.2 67.7L311.2 76.3L390.4 165.3Z" fill="#00101c" stroke="#00101c"></path><path d="M393.2 0L311.2 76.3L408.2 67.7Z" fill="#0c2332" stroke="#0c2332"></path><path d="M609.1 146L609.1 99.3L548.8 92.7Z" fill="#2a7a91" stroke="#2a7a91"></path><path d="M485.6 0L465.4 0L464.6 39.7Z" fill="#0c2332" stroke="#0c2332"></path><path d="M671.3 67.3L609.1 99.3L710.3 111.7Z" fill="#3192a9" stroke="#3192a9"></path><path d="M223.7 392.3L286.9 424L301.2 404Z" fill="#3aacc0" stroke="#3aacc0"></path><path d="M286.9 424L278.2 429.7L376.4 450Z" fill="#0c2332" stroke="#0c2332"></path><path d="M311.2 76.3L288.9 83.7L260.9 159Z" fill="#236379" stroke="#236379"></path><path d="M507.6 504.7L552.8 485.7L499.6 451Z" fill="#236379" stroke="#236379"></path><path d="M499.6 451L552.8 485.7L508.6 396.3Z" fill="#3aacc0" stroke="#3aacc0"></path><path d="M376.4 450L507.6 504.7L422.4 422.7Z" fill="#00101c" stroke="#00101c"></path><path d="M511.6 543.3L507.6 504.7L355.4 551.3Z" fill="#153749" stroke="#153749"></path><path d="M263.7 245.7L223.7 392.3L327.2 268.3Z" fill="#1c4c61" stroke="#1c4c61"></path><path d="M186.7 265L223.7 392.3L263.7 245.7Z" fill="#1c4c61" stroke="#1c4c61"></path><path d="M142.5 208.7L186.7 265L260.9 159Z" fill="#153749" stroke="#153749"></path><path d="M260.9 159L186.7 265L263.7 245.7Z" fill="#51e0eb" stroke="#51e0eb"></path><path d="M485.6 0L464.6 39.7L494.8 0Z" fill="#1c4c61" stroke="#1c4c61"></path><path d="M464.6 39.7L393.2 0L408.2 67.7Z" fill="#153749" stroke="#153749"></path><path d="M308.9 0L252.9 72.3L288.9 83.7Z" fill="#153749" stroke="#153749"></path><path d="M494.8 0L464.6 39.7L548.8 92.7Z" fill="#1c4c61" stroke="#1c4c61"></path><path d="M559.1 0L494.8 0L548.8 92.7Z" fill="#2a7a91" stroke="#2a7a91"></path><path d="M465.4 0L393.2 0L464.6 39.7Z" fill="#236379" stroke="#236379"></path><path d="M308.9 0L288.9 83.7L311.2 76.3Z" fill="#1c4c61" stroke="#1c4c61"></path><path d="M288.9 83.7L252.9 72.3L260.9 159Z" fill="#236379" stroke="#236379"></path><path d="M661.1 473.3L684.3 400.3L633.3 389Z" fill="#51e0eb" stroke="#51e0eb"></path><path d="M633.3 389L684.3 400.3L620.1 352Z" fill="#44c5d6" stroke="#44c5d6"></path><path d="M750.5 226.7L707.5 160L637.1 243.7Z" fill="#0c2332" stroke="#0c2332"></path><path d="M637.1 243.7L707.5 160L609.1 146Z" fill="#236379" stroke="#236379"></path><path d="M750.5 226.7L637.1 243.7L753.3 263Z" fill="#44c5d6" stroke="#44c5d6"></path><path d="M609.1 99.3L559.1 0L548.8 92.7Z" fill="#51e0eb" stroke="#51e0eb"></path><path d="M507.6 504.7L511.6 543.3L552.8 485.7Z" fill="#3aacc0" stroke="#3aacc0"></path><path d="M552.8 485.7L661.1 473.3L633.3 389Z" fill="#3aacc0" stroke="#3aacc0"></path><path d="M355.4 551.3L507.6 504.7L376.4 450Z" fill="#51e0eb" stroke="#51e0eb"></path><path d="M671.3 67.3L559.1 0L609.1 99.3Z" fill="#3aacc0" stroke="#3aacc0"></path><path d="M223.7 392.3L218.7 450L278.2 429.7Z" fill="#2a7a91" stroke="#2a7a91"></path><path d="M323.2 559.3L355.4 551.3L376.4 450Z" fill="#3aacc0" stroke="#3aacc0"></path><path d="M100.5 427L218.7 450L223.7 392.3Z" fill="#0c2332" stroke="#0c2332"></path><path d="M393.2 0L308.9 0L311.2 76.3Z" fill="#153749" stroke="#153749"></path><path d="M710.3 111.7L609.1 99.3L609.1 146Z" fill="#51e0eb" stroke="#51e0eb"></path><path d="M665.1 503.7L661.1 473.3L552.8 485.7Z" fill="#0c2332" stroke="#0c2332"></path><path d="M254.7 505.7L376.4 450L278.2 429.7Z" fill="#236379" stroke="#236379"></path><path d="M707.5 160L710.3 111.7L609.1 146Z" fill="#61fbff" stroke="#61fbff"></path><path d="M218.7 450L254.7 505.7L278.2 429.7Z" fill="#0c2332" stroke="#0c2332"></path><path d="M753.3 263L637.1 243.7L643.3 289.7Z" fill="#153749" stroke="#153749"></path><path d="M707.5 160L780.8 173L710.3 111.7Z" fill="#236379" stroke="#236379"></path><path d="M753.3 263L643.3 289.7L684.3 400.3Z" fill="#1c4c61" stroke="#1c4c61"></path><path d="M146.7 123.3L260.9 159L252.9 72.3Z" fill="#0c2332" stroke="#0c2332"></path><path d="M146.7 123.3L142.5 208.7L260.9 159Z" fill="#00101c" stroke="#00101c"></path><path d="M186.7 265L121.2 315.3L223.7 392.3Z" fill="#51e0eb" stroke="#51e0eb"></path><path d="M790.5 340.3L753.3 263L684.3 400.3Z" fill="#0c2332" stroke="#0c2332"></path><path d="M661.1 473.3L722.3 413.7L684.3 400.3Z" fill="#51e0eb" stroke="#51e0eb"></path><path d="M254.7 505.7L323.2 559.3L376.4 450Z" fill="#3192a9" stroke="#3192a9"></path><path d="M521.8 600L536.8 586.3L511.6 543.3Z" fill="#00101c" stroke="#00101c"></path><path d="M142.5 208.7L126.2 237.7L186.7 265Z" fill="#0c2332" stroke="#0c2332"></path><path d="M790.5 340.3L769.8 266.7L753.3 263Z" fill="#153749" stroke="#153749"></path><path d="M753.3 263L769.8 266.7L750.5 226.7Z" fill="#3aacc0" stroke="#3aacc0"></path><path d="M750.5 226.7L780.8 173L707.5 160Z" fill="#153749" stroke="#153749"></path><path d="M661.1 473.3L765.8 462L722.3 413.7Z" fill="#51e0eb" stroke="#51e0eb"></path><path d="M651.3 563.3L665.1 503.7L552.8 485.7Z" fill="#3aacc0" stroke="#3aacc0"></path><path d="M126.2 237.7L121.2 315.3L186.7 265Z" fill="#2a7a91" stroke="#2a7a91"></path><path d="M218.7 450L218.9 511.7L254.7 505.7Z" fill="#00101c" stroke="#00101c"></path><path d="M142.5 208.7L102.5 199L126.2 237.7Z" fill="#00101c" stroke="#00101c"></path><path d="M186.7 2.7L146.7 123.3L252.9 72.3Z" fill="#153749" stroke="#153749"></path><path d="M745.3 0L684.1 31.7L710.3 111.7Z" fill="#44c5d6" stroke="#44c5d6"></path><path d="M710.3 111.7L684.1 31.7L671.3 67.3Z" fill="#0c2332" stroke="#0c2332"></path><path d="M671.3 67.3L684.1 31.7L559.1 0Z" fill="#44c5d6" stroke="#44c5d6"></path><path d="M476.6 600L511.6 543.3L355.4 551.3Z" fill="#3aacc0" stroke="#3aacc0"></path><path d="M511.6 543.3L536.8 586.3L552.8 485.7Z" fill="#00101c" stroke="#00101c"></path><path d="M201.7 505.3L218.9 511.7L218.7 450Z" fill="#0c2332" stroke="#0c2332"></path><path d="M254.7 505.7L241.9 551.3L323.2 559.3Z" fill="#00101c" stroke="#00101c"></path><path d="M351.4 600L476.6 600L355.4 551.3Z" fill="#0c2332" stroke="#0c2332"></path><path d="M100.5 427L201.7 505.3L218.7 450Z" fill="#00101c" stroke="#00101c"></path><path d="M291.2 600L351.4 600L323.2 559.3Z" fill="#3aacc0" stroke="#3aacc0"></path><path d="M308.9 0L224.7 0L252.9 72.3Z" fill="#1c4c61" stroke="#1c4c61"></path><path d="M476.6 600L521.8 600L511.6 543.3Z" fill="#3aacc0" stroke="#3aacc0"></path><path d="M536.8 586.3L581.1 600L552.8 485.7Z" fill="#236379" stroke="#236379"></path><path d="M785.5 173.3L780.8 173L750.5 226.7Z" fill="#3aacc0" stroke="#3aacc0"></path><path d="M241.9 551.3L254.7 505.7L218.9 511.7Z" fill="#44c5d6" stroke="#44c5d6"></path><path d="M323.2 559.3L351.4 600L355.4 551.3Z" fill="#2a7a91" stroke="#2a7a91"></path><path d="M146.7 123.3L102.5 199L142.5 208.7Z" fill="#153749" stroke="#153749"></path><path d="M126.2 237.7L83.2 250L121.2 315.3Z" fill="#51e0eb" stroke="#51e0eb"></path><path d="M163.5 548.3L241.9 551.3L218.9 511.7Z" fill="#44c5d6" stroke="#44c5d6"></path><path d="M769.8 266.7L785.5 173.3L750.5 226.7Z" fill="#61fbff" stroke="#61fbff"></path><path d="M780.8 173L790.5 24.7L710.3 111.7Z" fill="#153749" stroke="#153749"></path><path d="M722.3 413.7L790.5 340.3L684.3 400.3Z" fill="#61fbff" stroke="#61fbff"></path><path d="M769.8 266.7L885.8 165.3L785.5 173.3Z" fill="#51e0eb" stroke="#51e0eb"></path><path d="M816.5 376L790.5 340.3L722.3 413.7Z" fill="#153749" stroke="#153749"></path><path d="M102.5 199L83.2 250L126.2 237.7Z" fill="#61fbff" stroke="#61fbff"></path><path d="M121.2 315.3L100.5 427L223.7 392.3Z" fill="#3192a9" stroke="#3192a9"></path><path d="M521.8 600L581.1 600L536.8 586.3Z" fill="#1c4c61" stroke="#1c4c61"></path><path d="M581.1 600L651.3 563.3L552.8 485.7Z" fill="#153749" stroke="#153749"></path><path d="M665.1 503.7L765.8 462L661.1 473.3Z" fill="#153749" stroke="#153749"></path><path d="M224.7 0L194.5 0L252.9 72.3Z" fill="#3192a9" stroke="#3192a9"></path><path d="M146.7 123.3L73.5 143.3L102.5 199Z" fill="#236379" stroke="#236379"></path><path d="M194.5 0L186.7 2.7L252.9 72.3Z" fill="#00101c" stroke="#00101c"></path><path d="M241.9 551.3L291.2 600L323.2 559.3Z" fill="#00101c" stroke="#00101c"></path><path d="M83.2 250L79.5 353.3L121.2 315.3Z" fill="#3192a9" stroke="#3192a9"></path><path d="M763.5 517.3L765.8 462L665.1 503.7Z" fill="#2a7a91" stroke="#2a7a91"></path><path d="M79.5 353.3L100.5 427L121.2 315.3Z" fill="#3192a9" stroke="#3192a9"></path><path d="M143.7 600L263.9 600L241.9 551.3Z" fill="#3192a9" stroke="#3192a9"></path><path d="M241.9 551.3L263.9 600L291.2 600Z" fill="#00101c" stroke="#00101c"></path><path d="M163.5 548.3L218.9 511.7L201.7 505.3Z" fill="#44c5d6" stroke="#44c5d6"></path><path d="M823.8 397.3L816.5 376L722.3 413.7Z" fill="#1c4c61" stroke="#1c4c61"></path><path d="M900 291.7L885.8 165.3L769.8 266.7Z" fill="#51e0eb" stroke="#51e0eb"></path><path d="M102.5 199L0 183L83.2 250Z" fill="#61fbff" stroke="#61fbff"></path><path d="M0 311.3L27.2 354L79.5 353.3Z" fill="#61fbff" stroke="#61fbff"></path><path d="M63.2 121.3L73.5 143.3L146.7 123.3Z" fill="#153749" stroke="#153749"></path><path d="M79.5 353.3L88.5 434.7L100.5 427Z" fill="#0c2332" stroke="#0c2332"></path><path d="M100.5 427L163.5 548.3L201.7 505.3Z" fill="#3192a9" stroke="#3192a9"></path><path d="M790.5 24.7L745.3 0L710.3 111.7Z" fill="#0c2332" stroke="#0c2332"></path><path d="M684.1 31.7L745.3 0L559.1 0Z" fill="#3192a9" stroke="#3192a9"></path><path d="M88.5 434.7L163.5 548.3L100.5 427Z" fill="#236379" stroke="#236379"></path><path d="M765.8 462L823.8 397.3L722.3 413.7Z" fill="#0c2332" stroke="#0c2332"></path><path d="M885.8 165.3L809.8 25.7L785.5 173.3Z" fill="#2a7a91" stroke="#2a7a91"></path><path d="M730.3 600L763.5 517.3L665.1 503.7Z" fill="#0c2332" stroke="#0c2332"></path><path d="M765.8 462L776.5 502.7L823.8 397.3Z" fill="#153749" stroke="#153749"></path><path d="M730.3 600L665.1 503.7L651.3 563.3Z" fill="#153749" stroke="#153749"></path><path d="M81.2 72.7L63.2 121.3L146.7 123.3Z" fill="#2a7a91" stroke="#2a7a91"></path><path d="M0 183L0 266.7L83.2 250Z" fill="#44c5d6" stroke="#44c5d6"></path><path d="M194.5 0L134.2 0L186.7 2.7Z" fill="#3aacc0" stroke="#3aacc0"></path><path d="M186.7 2.7L134.2 0L146.7 123.3Z" fill="#2a7a91" stroke="#2a7a91"></path><path d="M763.5 517.3L776.5 502.7L765.8 462Z" fill="#236379" stroke="#236379"></path><path d="M134.2 0L81.2 72.7L146.7 123.3Z" fill="#3aacc0" stroke="#3aacc0"></path><path d="M763.5 517.3L776.8 508.7L776.5 502.7Z" fill="#236379" stroke="#236379"></path><path d="M900 421.7L900 384L823.8 397.3Z" fill="#00101c" stroke="#00101c"></path><path d="M134.2 0L76.5 67.7L81.2 72.7Z" fill="#3192a9" stroke="#3192a9"></path><path d="M81.2 72.7L76.5 67.7L63.2 121.3Z" fill="#2a7a91" stroke="#2a7a91"></path><path d="M785.5 173.3L790.5 24.7L780.8 173Z" fill="#44c5d6" stroke="#44c5d6"></path><path d="M809.8 25.7L790.5 24.7L785.5 173.3Z" fill="#00101c" stroke="#00101c"></path><path d="M79.5 353.3L27.2 354L88.5 434.7Z" fill="#1c4c61" stroke="#1c4c61"></path><path d="M129.5 600L143.7 600L163.5 548.3Z" fill="#3192a9" stroke="#3192a9"></path><path d="M0 311.3L79.5 353.3L83.2 250Z" fill="#3192a9" stroke="#3192a9"></path><path d="M790.5 24.7L781.5 0L745.3 0Z" fill="#3aacc0" stroke="#3aacc0"></path><path d="M769.8 266.7L790.5 340.3L900 291.7Z" fill="#61fbff" stroke="#61fbff"></path><path d="M790.5 24.7L799.8 0L781.5 0Z" fill="#153749" stroke="#153749"></path><path d="M581.1 600L730.3 600L651.3 563.3Z" fill="#3aacc0" stroke="#3aacc0"></path><path d="M763.5 517.3L796.5 600L776.8 508.7Z" fill="#51e0eb" stroke="#51e0eb"></path><path d="M809.8 25.7L799.8 0L790.5 24.7Z" fill="#51e0eb" stroke="#51e0eb"></path><path d="M0 183L102.5 199L73.5 143.3Z" fill="#61fbff" stroke="#61fbff"></path><path d="M0 183L73.5 143.3L0 126.3Z" fill="#236379" stroke="#236379"></path><path d="M0 266.7L0 311.3L83.2 250Z" fill="#51e0eb" stroke="#51e0eb"></path><path d="M129.5 600L163.5 548.3L91.2 600Z" fill="#61fbff" stroke="#61fbff"></path><path d="M163.5 548.3L143.7 600L241.9 551.3Z" fill="#1c4c61" stroke="#1c4c61"></path><path d="M0 377L88.5 434.7L27.2 354Z" fill="#0c2332" stroke="#0c2332"></path><path d="M900 291.7L790.5 340.3L900 300.3Z" fill="#61fbff" stroke="#61fbff"></path><path d="M809.8 25.7L900 0L799.8 0Z" fill="#153749" stroke="#153749"></path><path d="M0 126.3L73.5 143.3L63.2 121.3Z" fill="#3aacc0" stroke="#3aacc0"></path><path d="M900 300.3L816.5 376L900 384Z" fill="#44c5d6" stroke="#44c5d6"></path><path d="M900 300.3L790.5 340.3L816.5 376Z" fill="#61fbff" stroke="#61fbff"></path><path d="M816.5 376L823.8 397.3L900 384Z" fill="#0c2332" stroke="#0c2332"></path><path d="M823.8 397.3L776.5 502.7L900 421.7Z" fill="#236379" stroke="#236379"></path><path d="M0 311.3L0 377L27.2 354Z" fill="#00101c" stroke="#00101c"></path><path d="M91.2 600L163.5 548.3L24.2 521.3Z" fill="#0c2332" stroke="#0c2332"></path><path d="M900 291.7L900 164L885.8 165.3Z" fill="#0c2332" stroke="#0c2332"></path><path d="M885.8 165.3L900 60.7L809.8 25.7Z" fill="#2a7a91" stroke="#2a7a91"></path><path d="M0 67.7L0 126.3L63.2 121.3Z" fill="#3192a9" stroke="#3192a9"></path><path d="M0 67.7L63.2 121.3L76.5 67.7Z" fill="#1c4c61" stroke="#1c4c61"></path><path d="M900 164L900 157.3L885.8 165.3Z" fill="#00101c" stroke="#00101c"></path><path d="M900 421.7L776.5 502.7L858.8 553.3Z" fill="#00101c" stroke="#00101c"></path><path d="M730.3 600L781.8 600L763.5 517.3Z" fill="#61fbff" stroke="#61fbff"></path><path d="M858.8 553.3L776.5 502.7L776.8 508.7Z" fill="#44c5d6" stroke="#44c5d6"></path><path d="M0 377L9.2 469.7L88.5 434.7Z" fill="#0c2332" stroke="#0c2332"></path><path d="M781.8 600L796.5 600L763.5 517.3Z" fill="#44c5d6" stroke="#44c5d6"></path><path d="M0 0L0 67.7L76.5 67.7Z" fill="#236379" stroke="#236379"></path><path d="M24.2 521.3L163.5 548.3L88.5 434.7Z" fill="#51e0eb" stroke="#51e0eb"></path><path d="M9.2 469.7L24.2 521.3L88.5 434.7Z" fill="#44c5d6" stroke="#44c5d6"></path><path d="M900 157.3L900 60.7L885.8 165.3Z" fill="#1c4c61" stroke="#1c4c61"></path><path d="M796.5 600L858.8 553.3L776.8 508.7Z" fill="#44c5d6" stroke="#44c5d6"></path><path d="M9.2 469.7L0 517.3L24.2 521.3Z" fill="#61fbff" stroke="#61fbff"></path><path d="M24.2 521.3L0 600L91.2 600Z" fill="#44c5d6" stroke="#44c5d6"></path><path d="M0 377L0 517.3L9.2 469.7Z" fill="#3192a9" stroke="#3192a9"></path><path d="M134.2 0L0 0L76.5 67.7Z" fill="#2a7a91" stroke="#2a7a91"></path><path d="M0 517.3L0 529.7L24.2 521.3Z" fill="#3192a9" stroke="#3192a9"></path><path d="M900 60.7L900 0L809.8 25.7Z" fill="#61fbff" stroke="#61fbff"></path><path d="M900 600L900 574.3L858.8 553.3Z" fill="#51e0eb" stroke="#51e0eb"></path><path d="M858.8 553.3L900 574.3L900 421.7Z" fill="#61fbff" stroke="#61fbff"></path><path d="M0 529.7L0 600L24.2 521.3Z" fill="#153749" stroke="#153749"></path><path d="M796.5 600L900 600L858.8 553.3Z" fill="#236379" stroke="#236379"></path></g></svg>